<svg  viewBox="0 0 70 70" fill="none" xmlns="http://www.w3.org/2000/svg">
<g clip-path="url(#clip0_1_333)">
<g style="mix-blend-mode:hard-light">
<path d="M69.974 48.3385L51.5045 29.7337L53.5543 19.6373C54.0833 19.8438 54.6456 19.9517 55.2133 19.9558H55.2273C57.8354 19.9866 59.9747 17.8974 60.0056 15.2893C60.0365 12.6812 57.9471 10.542 55.339 10.5111C52.731 10.4803 50.5917 12.5695 50.5608 15.1776C50.5543 15.7357 50.6466 16.2905 50.8337 16.8163L39.9837 18.1405L22.2853 0.35C22.0682 0.128479 21.7719 0.00247917 21.4617 0C21.1554 0.00160417 20.8621 0.123521 20.645 0.3395L17.3363 3.6295C16.8809 4.08508 16.8809 4.82358 17.3363 5.27917L19.1167 7.08517C12.2193 19.7681 14.4596 35.4741 24.628 45.7228C24.7213 45.8121 24.8295 45.8843 24.9477 45.9363C24.8742 46.3311 24.8358 46.7317 24.8333 47.1333V60.6667H10.8333C7.61333 60.6705 5.00379 63.28 5 66.5V68.8333C5 69.4776 5.52237 70 6.16667 70H59.8333C60.4776 70 61 69.4776 61 68.8333V66.5C60.9962 63.28 58.3867 60.6705 55.1667 60.6667H41.1667V54.6688C43.3599 55.1288 45.5945 55.3633 47.8353 55.3688C53.2125 55.363 58.5041 54.0225 63.2353 51.4675L65.025 53.2677C65.2421 53.4892 65.5385 53.6152 65.8487 53.6177C66.1549 53.6161 66.4482 53.4941 66.6653 53.2782L69.974 49.9882C70.4294 49.5326 70.4294 48.7941 69.974 48.3385ZM53.5823 13.6348C54.496 12.726 55.9734 12.7301 56.8821 13.6437C57.7909 14.5574 57.7869 16.0348 56.8732 16.9435C56.4359 17.3785 55.8441 17.6226 55.2272 17.6225H55.2202C53.9316 17.6158 52.8923 16.5658 52.899 15.2771C52.9022 14.6602 53.1495 14.0699 53.5869 13.6348H53.5823ZM50.836 21.301L49.527 27.7445L46.9557 25.158L50.836 21.301ZM49.5107 19.3282L45.3107 23.5037L42.0615 20.237L49.5107 19.3282ZM55.1667 63C57.0997 63 58.6667 64.567 58.6667 66.5V67.6667H7.33333V66.5C7.33333 64.567 8.90031 63 10.8333 63H55.1667ZM38.8333 58.3333V60.6667H27.1667V58.3333H38.8333ZM27.1667 56V47.1333C27.1667 44.303 29.7835 42 33 42C36.2165 42 38.8333 44.303 38.8333 47.1333V56H27.1667ZM41.1667 52.29V47.1333C41.1667 43.0162 37.5033 39.6667 33 39.6667C30.0883 39.622 27.3656 41.1041 25.8227 43.5738C16.9464 34.2249 14.9476 20.2875 20.8382 8.82073L61.5297 49.7455C55.2463 52.9419 48.0434 53.8418 41.1667 52.29ZM65.8615 50.7943L64.2177 49.1412L21.45 6.11567L19.7992 4.46133L21.45 2.81633L38.8077 20.272C38.8158 20.272 38.8205 20.2872 38.8287 20.293L67.517 49.1493L65.8615 50.7943Z" fill="#212121"/>
</g>
<path d="M30.3528 44.3333H30.3423C28.4093 44.3304 26.84 45.895 26.837 47.8281C26.8341 49.7611 28.3988 51.3304 30.3318 51.3333H30.3423C32.2753 51.3362 33.8446 49.7716 33.8475 47.8386C33.8505 45.9055 32.2858 44.3362 30.3528 44.3333ZM31.1695 48.6605C30.9498 48.8789 30.6522 49.0012 30.3423 49C29.698 48.9966 29.1784 48.4716 29.1817 47.8273C29.1834 47.5189 29.307 47.2237 29.5256 47.0062C29.7428 46.7902 30.036 46.6683 30.3423 46.6667C30.9866 46.67 31.5062 47.195 31.5028 47.8393C31.5012 48.1477 31.3776 48.4429 31.159 48.6605H31.1695Z" fill="#2196F3"/>
</g>
<defs>
<clipPath id="clip0_1_333">
<rect width="70" height="70" fill="white"/>
</clipPath>
</defs>
</svg>
